<svg id="Layer_1" data-name="Layer 1" xmlns="http://www.w3.org/2000/svg" viewBox="0 0 620.33 195.42"><defs><style>.cls-1{fill:#fff;}</style></defs><title>POS_Horizontal_1_White</title><path class="cls-1" d="M457.85,61q-16.73-4.16-33.64-7.12A465.22,465.22,0,0,0,346.26,63q18.28,4.11,35.92,9.63A447.83,447.83,0,0,1,457.85,61Z"/><path class="cls-1" d="M428.27,89.55a421,421,0,0,1,62.14-19.16q-12.81-4.17-25.8-7.6a444.34,444.34,0,0,0-75.76,11.95q7.71,2.55,15.3,5.35Q416.39,84.48,428.27,89.55Z"/><path class="cls-1" d="M365.85,47.3a484,484,0,0,0-98,4.85q16.32.84,32.33,2.79A479,479,0,0,1,365.85,47.3Z"/><path class="cls-1" d="M414.28,52.28q-16.54-2.53-33.21-3.91a478,478,0,0,0-74.35,7.43q16.77,2.27,33.08,5.71A466.57,466.57,0,0,1,414.28,52.28Z"/><path class="cls-1" d="M257.48,53.87A455.37,455.37,0,0,1,423,91.77q-16.86,6.67-32.52,14.6C342,81.65,285.93,65.24,225,60.77Q241.13,56.77,257.48,53.87Z"/><path class="cls-1" d="M218.24,62.42C280.16,67,336.88,84,385.49,109.39a371.51,371.51,0,0,0-44.23,28.17c-41.09-30.35-91.83-54.25-150-67.23Q204.67,66,218.24,62.42Z"/><path class="cls-1" d="M51.47,166.6c0,16.7-9.56,28.82-25.78,28.82S0,183.3,0,166.6c0-16.87,9.55-28.83,25.69-28.83S51.47,149.73,51.47,166.6Zm-5.54,0c0-15.58-8.27-24.81-20.24-24.81S5.54,151,5.54,166.6s8.27,24.81,20.15,24.81S45.93,182.09,45.93,166.6Z"/><path class="cls-1" d="M91.06,194.3h-5v-8.19l-2.33,4.73a15.92,15.92,0,0,1-11.88,4.58c-8.67,0-13.81-4.9-14.77-11.64a54.7,54.7,0,0,1-.32-7.15V151.82h5v23.69a58,58,0,0,0,.32,6.34c.65,5.62,4.34,9.56,10.92,9.56,7.07,0,13.09-5.14,13.09-18.47V151.82h5Z"/><path class="cls-1" d="M106.4,182.65c0,1.77,0,2.65.08,3.78.32,4.09,2.09,5.14,7.79,4.41v3.7a27.83,27.83,0,0,1-5.14.4c-4.74,0-7.23-2.09-7.63-6.75-.08-1.44-.08-3.05-.08-5.45V156H96v-3.86h5.46v-11.9h5v11.9h8.11V156H106.4Z"/><path class="cls-1" d="M154.5,194.3h-5v-7.87l-2.81,4.65c-3,3-7.15,4.34-12,4.34-11.89,0-18.95-9.23-18.95-21.84,0-15.42,9.47-22.88,20.23-22.88,4.18,0,8.27,1.28,10.92,3.85l2.65,4.58V140.45h5Zm-5-20.24v-3.21c0-12-7.31-16.14-13.57-16.14-8.51,0-14.77,6.75-14.77,18.23,0,10.2,4.89,18.55,14.21,18.55C142.94,191.49,149.52,186.91,149.52,174.06Z"/><path class="cls-1" d="M201.23,173.1c0,12.44-7.14,22.32-20.63,22.32S160,185.54,160,173.1s7.15-22.4,20.64-22.4S201.23,160.57,201.23,173.1Zm-5.46,0c0-11.56-6.34-18.39-15.17-18.39s-15.18,6.83-15.18,18.39,6.35,18.39,15.18,18.39S195.77,184.66,195.77,173.1Z"/><path class="cls-1" d="M244.36,173.1c0,12.44-7.15,22.32-20.64,22.32s-20.64-9.88-20.64-22.32,7.15-22.4,20.64-22.4S244.36,160.57,244.36,173.1Zm-5.46,0c0-11.56-6.35-18.39-15.18-18.39s-15.18,6.83-15.18,18.39,6.35,18.39,15.18,18.39S238.9,184.66,238.9,173.1Z"/><path class="cls-1" d="M267.49,151.18v3.93c-7.39-.56-12.85,4-12.85,15.34V194.3h-5V151.82h5v7.71l3.05-5.46a10.23,10.23,0,0,1,7.31-3.21A8.21,8.21,0,0,1,267.49,151.18Z"/><path class="cls-1" d="M317.75,156H303.3c-.64-4.58-3.05-7.63-7.79-7.63-3.29,0-5.54,1.6-5.54,5,0,3.53,2.57,5.7,11.72,7.87,12.21,2.89,17.19,9,17.19,17.5,0,11.08-10.6,16.7-21.76,16.7-14.06,0-23.53-5.62-24.41-18.06h14.45c1,5.21,5.22,7.46,9.55,7.46,4,0,7.07-2.08,7.07-5.14,0-2.89-2.09-5.38-8.91-7.06-12.61-3.13-20-7.07-20-18.15,0-10.68,10-16.7,21-16.7C310.45,137.77,316.55,145.72,317.75,156Z"/><path class="cls-1" d="M365.29,172.86c0,13.73-9,22.56-23,22.56s-23.05-8.83-23.05-22.56,9-22.56,23.05-22.56S365.29,159.05,365.29,172.86Zm-14.77,0c0-8.59-3.13-12.77-8.27-12.77S334,164.27,334,172.86s3.13,12.77,8.27,12.77S350.52,181.37,350.52,172.86Z"/><path class="cls-1" d="M382.72,178.88a25.25,25.25,0,0,0,.16,3.94c.24,1.68,1,2.24,4.74,2.08v9.8c-2.65.24-5.22.4-8.43.4-6.67,0-10.44-2.65-10.76-8.35-.16-2.25-.16-4.42-.16-7.63V135.28h14.45Z"/><path class="cls-1" d="M432.83,194.3H418.37v-7.23l-3.85,5.86a17.85,17.85,0,0,1-9.64,2.49c-8.83,0-14.21-5-15.17-10.84a56.64,56.64,0,0,1-.4-8.11V151.42h14.45v21.84a58,58,0,0,0,.32,5.86c.48,4.1,2.41,6.51,7,6.51s7.3-4.26,7.3-10V151.42h14.46Z"/><path class="cls-1" d="M455.87,176.55c0,1.45,0,3,.08,4.18.33,4.33,1.69,5.3,8.52,5v9a48.88,48.88,0,0,1-8.52.72c-10.67,0-13.89-3.29-14.37-9.88-.16-2.48-.16-4.49-.16-6.9V160.73H434.6v-9h6.82V140.66h14.45v11.08h9.48v9h-9.48Z"/><path class="cls-1" d="M482.37,141.06c0,4.34-3,7.07-7.46,7.07s-7.47-2.73-7.47-7.07,3-7.06,7.47-7.06S482.37,136.72,482.37,141.06ZM467.68,194.3V151.42h14.45V194.3Z"/><path class="cls-1" d="M531.52,172.86c0,13.73-9,22.56-23,22.56s-23-8.83-23-22.56,9-22.56,23-22.56S531.52,159.05,531.52,172.86Zm-14.78,0c0-8.59-3.13-12.77-8.27-12.77s-8.27,4.18-8.27,12.77,3.13,12.77,8.27,12.77S516.74,181.37,516.74,172.86Z"/><path class="cls-1" d="M578.34,170.05V194.3H563.88V172.46c0-1.37,0-3.7-.16-5.86-.32-4.1-2.57-6.51-6.9-6.51s-7.55,4.26-7.55,14V194.3H534.81V151.42h14.46v6.67l3.85-5.31a17.93,17.93,0,0,1,9.64-2.48c8.83,0,14,4.17,15.17,11.64A56.5,56.5,0,0,1,578.34,170.05Z"/><path class="cls-1" d="M619.21,164H605c-.64-3-2.09-4.66-4.66-4.66a3.17,3.17,0,0,0-3.45,3.13c0,2.41,1.92,4,10.12,6,7.78,1.93,13.32,5.3,13.32,13.57,0,9.16-8.59,13.41-19,13.41-11.64,0-19.59-4.82-20.71-14.45h14.21a6.71,6.71,0,0,0,6.42,5.46c2.57,0,4.58-1,4.58-3.29,0-2.73-2.73-4.26-10.36-6-8.19-1.92-13.08-5.7-13.08-13,0-8.52,7.38-13.81,18.78-13.81C611.9,150.3,618.09,156.16,619.21,164Z"/><path class="cls-1" d="M70.09,119.57a4.9,4.9,0,0,1-4.52,5.11,18.53,18.53,0,0,1-2.44.12H60.67v6.33H57.32V114.34h5.81a18.53,18.53,0,0,1,2.44.12A4.82,4.82,0,0,1,70.09,119.57Zm-3.53,0a2.23,2.23,0,0,0-2-2.51,12,12,0,0,0-1.49-.07H60.67v5.16h2.41a14.28,14.28,0,0,0,1.49-.07A2.23,2.23,0,0,0,66.56,119.57Z"/><path class="cls-1" d="M88.42,131.13H84.74a14.91,14.91,0,0,1-.83-3.75c-.22-1.8-.9-2.89-2.26-3-.46,0-.88,0-1.31,0h-2v6.77H75V114.34h6.13a18.53,18.53,0,0,1,2.44.12c2.43.29,4.4,1.56,4.4,4.45A4.06,4.06,0,0,1,84.72,123c1.65.63,2.28,2,2.48,3.89A8.52,8.52,0,0,0,88.42,131.13Zm-7.72-9.27c.58,0,1,0,1.36,0a2.3,2.3,0,0,0,2.41-2.41A2.16,2.16,0,0,0,82.26,117a10.78,10.78,0,0,0-1.41-.07H78.39v4.89Z"/><path class="cls-1" d="M109.17,122.73c0,5.26-3.14,8.74-8.3,8.74s-8.3-3.48-8.3-8.74,3.12-8.73,8.3-8.73S109.17,117.45,109.17,122.73Zm-3.53,0c0-3.94-1.8-6.23-4.77-6.23s-4.79,2.29-4.79,6.23,1.8,6.23,4.79,6.23S105.64,126.65,105.64,122.73Z"/><path class="cls-1" d="M118,121.39h7.66v2.66H118v7.08h-3.36V114.34h11.88V117H118Z"/><path class="cls-1" d="M143.77,131.13H131.65V114.34h11.88V117H135v4.42h7.91v2.66H135v4.43h8.76Z"/><path class="cls-1" d="M161,119.28h-3.43a2.76,2.76,0,0,0-2.9-2.78c-1.34,0-2.36.64-2.36,2s.9,2.12,3.58,2.75c3.7.85,5.35,2.55,5.35,5.26,0,3.16-2.89,5-6.2,5-4,0-6.65-1.78-7-5.31h3.44A3.34,3.34,0,0,0,155,129c1.53,0,2.75-.82,2.75-2.11s-.88-2.24-3.36-2.83c-3.43-.82-5.6-2-5.6-5.11s2.8-4.91,6-4.91C158.79,114,160.61,116.28,161,119.28Z"/><path class="cls-1" d="M178.33,119.28H174.9a2.76,2.76,0,0,0-2.9-2.78c-1.34,0-2.36.64-2.36,2s.9,2.12,3.58,2.75c3.7.85,5.35,2.55,5.35,5.26,0,3.16-2.9,5-6.21,5-4,0-6.64-1.78-7-5.31h3.44a3.34,3.34,0,0,0,3.48,2.8c1.53,0,2.75-.82,2.75-2.11s-.88-2.24-3.36-2.83c-3.43-.82-5.6-2-5.6-5.11s2.8-4.91,6-4.91C176.14,114,178,116.28,178.33,119.28Z"/><path class="cls-1" d="M183.9,131.13V114.34h3.36v16.79Z"/><path class="cls-1" d="M209.23,122.73c0,5.26-3.14,8.74-8.3,8.74s-8.3-3.48-8.3-8.74,3.12-8.73,8.3-8.73S209.23,117.45,209.23,122.73Zm-3.53,0c0-3.94-1.8-6.23-4.77-6.23s-4.79,2.29-4.79,6.23,1.8,6.23,4.79,6.23S205.7,126.65,205.7,122.73Z"/><path class="cls-1" d="M224.88,131.13,218,118.38c.09,1.82.12,3.74.12,5.16v7.59h-3.36V114.34h4.45l7.06,13c-.1-1.8-.12-3.84-.12-5.28v-7.71h3.33l0,16.79Z"/><path class="cls-1" d="M239.23,126.07l-1.68,5.06H234L240,114.34h4.21l5.94,16.79h-3.66l-1.65-5.06Zm.85-2.66H244l-1.95-6.2Z"/><path class="cls-1" d="M266.9,131.13H254.78V114.34h3.36v14h8.76Z"/><path class="cls-1" d="M340.77,0c-38.6-.15-69,22.39-75.44,48.75A486.89,486.89,0,0,1,416,49C409.73,22.65,379.37,0,340.77,0Z"/></svg>